<?xml version="1.0" encoding="UTF-8" standalone="no"?>
<svg
   viewBox="0 0 24 24"
   version="1.1"
   id="svg1"
   sodipodi:docname="heart-pulse.svg"
   inkscape:version="1.4.2 (ebf0e940d0, 2025-05-08)"
   xmlns:inkscape="http://www.inkscape.org/namespaces/inkscape"
   xmlns:sodipodi="http://sodipodi.sourceforge.net/DTD/sodipodi-0.dtd"
   xmlns="http://www.w3.org/2000/svg"
   xmlns:svg="http://www.w3.org/2000/svg">
  <defs
     id="defs1" />
  <sodipodi:namedview
     id="namedview1"
     pagecolor="#505050"
     bordercolor="#ffffff"
     borderopacity="1"
     inkscape:showpageshadow="0"
     inkscape:pageopacity="0"
     inkscape:pagecheckerboard="1"
     inkscape:deskcolor="#505050"
     inkscape:zoom="55.041667"
     inkscape:cx="12"
     inkscape:cy="12"
     inkscape:window-width="3840"
     inkscape:window-height="1563"
     inkscape:window-x="0"
     inkscape:window-y="0"
     inkscape:window-maximized="1"
     inkscape:current-layer="svg1" />
  <path
     d="M7.5,4A5.5,5.5 0 0,0 2,9.5C2,10 2.09,10.5 2.22,11H6.3L7.57,7.63C7.87,6.83 9.05,6.75 9.43,7.63L11.5,13L12.09,11.58C12.22,11.25 12.57,11 13,11H21.78C21.91,10.5 22,10 22,9.5A5.5,5.5 0 0,0 16.5,4C14.64,4 13,4.93 12,6.34C11,4.93 9.36,4 7.5,4V4M3,12.5A1,1 0 0,0 2,13.5A1,1 0 0,0 3,14.5H5.44L11,20C12,20.9 12,20.9 13,20L18.56,14.5H21A1,1 0 0,0 22,13.5A1,1 0 0,0 21,12.5H13.4L12.47,14.8C12.07,15.81 10.92,15.67 10.55,14.83L8.5,9.5L7.54,11.83C7.39,12.21 7.05,12.5 6.6,12.5H3Z"
     id="path1"
     style="fill:#4a93ff;fill-opacity:1" />
</svg>
